<?xml version="1.0" encoding="utf-8"?>
<!-- Generator: Adobe Illustrator 26.1.0, SVG Export Plug-In . SVG Version: 6.00 Build 0)  -->
<svg version="1.1" id="Слой_1" xmlns="http://www.w3.org/2000/svg" xmlns:xlink="http://www.w3.org/1999/xlink" x="0px" y="0px"
	 viewBox="0 0 100 100" style="enable-background:new 0 0 100 100;" xml:space="preserve">
<style type="text/css">
	.st0{fill:#CCCCCC;}
	.st1{fill:#FFFFFF;}
</style>
<g>
	<g>
		<path class="st0" d="M22.7,49.1v12.1c0,2.1-1.7,3.8-3.8,3.8s-3.8-1.7-3.8-3.8V41.6L22.7,49.1z"/>
	</g>
	<g>
		<path class="st1" d="M34.2,48.9l-5.3,5.3l-5.6-5.5L22.7,48v0l-6.4-6.4c-0.7-0.7-1.1-1.7-1.1-2.6c0-0.2,0-0.5,0.1-0.7
			c0.1-0.4,0.2-0.8,0.5-1.2c0.1-0.1,0.2-0.2,0.3-0.4l0.1-0.1c0.1-0.1,0.1-0.2,0.2-0.2c0.1-0.1,0.2-0.2,0.3-0.3
			c0.2-0.2,0.4-0.3,0.6-0.4c0.1,0,0.2-0.1,0.3-0.1c0.1,0,0.2-0.1,0.3-0.1c0.1,0,0.2-0.1,0.3-0.1c0.1,0,0.2,0,0.3,0
			c0.1,0,0.2,0,0.3,0c0.1,0,0.2,0,0.4,0c0.2,0,0.5,0,0.8,0.1c0.1,0,0.2,0,0.4,0.1c0.2,0.1,0.4,0.2,0.6,0.3c0,0,0,0,0,0
			c0.1,0,0.2,0.1,0.3,0.2c0,0,0,0,0,0c0.2,0.1,0.4,0.3,0.5,0.5h0L34.2,48.9z"/>
	</g>
	<path class="st0" d="M72.7,56.6l-17.6,6.9v-8L70,49.6c1.9-0.8,4.1,0.2,4.9,2.1C75.6,53.7,74.7,55.8,72.7,56.6z"/>
	<path class="st1" d="M84.6,37.4L84.6,37.4c-0.8-1.9-2.9-2.9-4.9-2.1l-20.8,8.1c-1.9,0.8-2.9,2.9-2.1,4.9v0c0.8,1.9,2.9,2.9,4.9,2.1
		l20.8-8.1C84.4,41.5,85.3,39.3,84.6,37.4z"/>
	<path class="st0" d="M34.8,49.4l11.3-11.3v10.6l-8.6,8.6c-1.1,1.2-2.9,1.4-4.2,0.7l0,0c-0.2-0.1-0.3-0.2-0.5-0.3
		c-0.2-0.1-0.4-0.3-0.6-0.4l-2.7-2.7L34.8,49.4z"/>
	<path class="st1" d="M54.3,38.9v24.8L52,64.7C51.5,64.9,51,65,50.6,65c0,0,0,0,0,0c-0.1,0-0.2,0-0.4,0c-0.4,0-0.8-0.1-1.1-0.3
		c-0.1-0.1-0.2-0.1-0.3-0.2c-0.1-0.1-0.3-0.1-0.4-0.2c0,0,0,0-0.1-0.1c-0.1-0.1-0.2-0.2-0.4-0.3c-0.1-0.1-0.2-0.2-0.3-0.4
		c-0.1-0.1-0.2-0.3-0.3-0.4c-0.1-0.1-0.2-0.3-0.2-0.4c-0.1-0.1-0.1-0.2-0.1-0.4c0,0,0,0,0,0c0,0,0-0.1,0-0.2c0-0.1,0-0.1,0-0.2
		c0-0.1,0-0.2-0.1-0.3c0-0.1,0-0.3,0-0.5V38.9c0-1,0.4-2,1.1-2.7c0.2-0.2,0.5-0.5,0.9-0.6c0.1-0.1,0.3-0.1,0.5-0.2
		c0.1-0.1,0.3-0.1,0.5-0.1c0.1,0,0.2,0,0.3,0c0.2,0,0.4-0.1,0.6-0.1c0.1,0,0.3,0,0.4,0c0.1,0,0.2,0,0.4,0.1c0.1,0,0.2,0,0.3,0.1
		c0.5,0.1,0.9,0.4,1.3,0.7c0.1,0.1,0.2,0.2,0.3,0.3c0,0,0,0,0.1,0.1c0.1,0.2,0.3,0.3,0.4,0.5c0,0,0,0,0,0.1
		C54.1,37.5,54.3,38.2,54.3,38.9z"/>
</g>
</svg>
